<?xml version="1.0" encoding="utf-8"?>
<!-- Generator: Adobe Illustrator 29.4.0, SVG Export Plug-In . SVG Version: 9.03 Build 0)  -->
<svg version="1.1" id="Layer_1" xmlns="http://www.w3.org/2000/svg" xmlns:xlink="http://www.w3.org/1999/xlink" x="0px" y="0px"
	 width="2497px" height="2762.8px" viewBox="0 0 2497 2762.8" enable-background="new 0 0 2497 2762.8" xml:space="preserve">
<g id="Generative_Object">
	<g>
		<path fill="#E6ECF7" d="M1251.3,1396.5L1251.3,1396.5l-5.9-3.3L43,716.2l-5.9-3.3c291.7-193.2,599.1-372.2,907-540.5
			c184.1-100.6,241.9-195.9,448-93.6c357.3,177.5,716.1,425.7,1063.9,625l6.1,4.2l-5.8,3.3L1251.3,1396.5L1251.3,1396.5z"/>
		<g>
			<path fill="#FB8D41" d="M1883.5,1537.7c236.5-34.9,142.3,321.8-26.7,367.7C1628.2,1967.5,1689.4,1566.4,1883.5,1537.7z"/>
			<path fill="#FB8D41" d="M1555.9,1437.4c221.8-34.9,87.3,310.6-73.5,280.8C1366.3,1696.7,1433.1,1456.7,1555.9,1437.4z"/>
			<path fill="#FB8D41" d="M1555.9,2079.2c222.6-35.7,88.2,309.4-66.9,280.8C1364.7,2337.1,1437.4,2098.2,1555.9,2079.2z"/>
			<path fill="#FB8D41" d="M2211.2,1083c198.4-8.2,44.1,348.1-107,280.8C2002.5,1318.6,2087.9,1088.1,2211.2,1083z"/>
			<path fill="#FB8D41" d="M2211.2,1724.9c189.3-13.3,66.2,311.1-80.2,287.5C2006.9,1992.4,2077.9,1734.2,2211.2,1724.9z"/>
			<g>
				<path fill="#F9D974" d="M1251.3,1396.5L1251.3,1396.5l0,6.7l2.6,1317.9l-6.9,3.7c-330.5-192.1-722-372.6-1038.3-584.2
					c-85.7-57.3-153.6-98.3-173.8-208.6l2.1-1211.8l0.2-7.5l5.9,3.3l1202.4,677.1L1251.3,1396.5L1251.3,1396.5z"/>
				<g>
					<path fill="#FDFDFD" d="M205.4,1002.8c14.5-4.9,38.6,2.2,53.5,6.7c67.4,20.1,282.4,156.9,361,200.6
						c68.6,38.1,437.1,242.8,458,284.2c61.8,122.2-19.2,722.8,13.4,895.9c-12.2,21-30.1,44.3-56.8,43.5L202,1942.2l-20.1-46.8
						v-869.2C182.5,1024.6,203.8,1003.3,205.4,1002.8z"/>
					
						<path fill="#E6ECF7" stroke="#5265A2" stroke-width="56.6775" stroke-linecap="round" stroke-linejoin="round" stroke-miterlimit="10" d="
						M482.8,1450.8c150.6-54.1,448.3,352,307.6,465.3C633.4,2042.6,269.9,1527.2,482.8,1450.8z"/>
				</g>
			</g>
		</g>
	</g>
	<g>
		
			<path fill="none" stroke="#5265A2" stroke-width="69.7569" stroke-linecap="round" stroke-linejoin="round" stroke-miterlimit="10" d="
			M2462.1,708l-0.2,1230.8c-13.3,71.5-71.5,121.8-120.3,171.2l-1087.6,617.9"/>
		
			<path fill="none" stroke="#5265A2" stroke-width="69.7569" stroke-linecap="round" stroke-linejoin="round" stroke-miterlimit="10" d="
			M2462.1,708l-6.1-4.2c-347.8-199.4-706.6-447.6-1063.9-625c-206-102.3-263.9-7-448,93.6c-307.9,168.2-615.3,347.2-907,540.5"/>
		
			<polyline fill="none" stroke="#5265A2" stroke-width="69.7569" stroke-linecap="round" stroke-linejoin="round" stroke-miterlimit="10" points="
			2462.1,708 2456.2,711.4 1251.3,1396.5 		"/>
		
			<path fill="none" stroke="#5265A2" stroke-width="69.7569" stroke-linecap="round" stroke-linejoin="round" stroke-miterlimit="10" d="
			M37.2,712.9l-0.2,7.5l-2.1,1211.8c20.2,110.3,88.1,151.3,173.8,208.6c316.3,211.5,707.8,392,1038.3,584.2l6.9,3"/>
		
			<polyline fill="none" stroke="#5265A2" stroke-width="69.7569" stroke-linecap="round" stroke-linejoin="round" stroke-miterlimit="10" points="
			1251.3,1396.5 1245.4,1393.2 43,716.2 37.2,712.9 		"/>
		
			<polyline fill="none" stroke="#5265A2" stroke-width="69.7569" stroke-linecap="round" stroke-linejoin="round" stroke-miterlimit="10" points="
			1251.3,1396.5 1251.3,1403.3 1253.9,2721.2 1253.9,2727.9 		"/>
		
			<path fill="none" stroke="#5265A2" stroke-width="65.3971" stroke-linecap="round" stroke-linejoin="round" stroke-miterlimit="10" d="
			M1198.2,528.1c342.4-50.7,463.3,313.4,80.2,341C964.8,891.7,853.3,579.2,1198.2,528.1z"/>
	</g>
</g>
</svg>
